<mxfile host="app.diagrams.net" modified="2024-03-28T11:29:39.742Z" agent="Mozilla/5.0 (Windows NT 10.0; Win64; x64) AppleWebKit/537.36 (KHTML, like Gecko) Chrome/122.0.0.0 Safari/537.36" etag="frT2DX_d4eU97PcXsMwb" version="24.0.7" type="github">
  <diagram name="第 1 页" id="BGUw-xMHY7ggZd7K4S8J">
    <mxGraphModel dx="2200" dy="699" grid="1" gridSize="10" guides="1" tooltips="1" connect="1" arrows="1" fold="1" page="1" pageScale="1" pageWidth="827" pageHeight="1169" math="0" shadow="0">
      <root>
        <mxCell id="0" />
        <mxCell id="1" parent="0" />
        <mxCell id="E9_3o5nhPN5Pwu67m_Ef-76" style="rounded=0;orthogonalLoop=1;jettySize=auto;html=1;exitX=0.5;exitY=1;exitDx=0;exitDy=0;entryX=0.5;entryY=0;entryDx=0;entryDy=0;" edge="1" parent="1" source="E9_3o5nhPN5Pwu67m_Ef-1" target="E9_3o5nhPN5Pwu67m_Ef-2">
          <mxGeometry relative="1" as="geometry" />
        </mxCell>
        <mxCell id="E9_3o5nhPN5Pwu67m_Ef-77" style="rounded=0;orthogonalLoop=1;jettySize=auto;html=1;exitX=0.5;exitY=1;exitDx=0;exitDy=0;" edge="1" parent="1" source="E9_3o5nhPN5Pwu67m_Ef-1" target="E9_3o5nhPN5Pwu67m_Ef-3">
          <mxGeometry relative="1" as="geometry" />
        </mxCell>
        <mxCell id="E9_3o5nhPN5Pwu67m_Ef-78" style="rounded=0;orthogonalLoop=1;jettySize=auto;html=1;exitX=0.5;exitY=1;exitDx=0;exitDy=0;entryX=0.5;entryY=0;entryDx=0;entryDy=0;" edge="1" parent="1" source="E9_3o5nhPN5Pwu67m_Ef-1" target="E9_3o5nhPN5Pwu67m_Ef-4">
          <mxGeometry relative="1" as="geometry" />
        </mxCell>
        <mxCell id="E9_3o5nhPN5Pwu67m_Ef-1" value="终端可信属性集合" style="rounded=1;whiteSpace=wrap;html=1;" vertex="1" parent="1">
          <mxGeometry x="270" y="210" width="120" height="40" as="geometry" />
        </mxCell>
        <mxCell id="E9_3o5nhPN5Pwu67m_Ef-47" style="rounded=0;orthogonalLoop=1;jettySize=auto;html=1;exitX=0.5;exitY=1;exitDx=0;exitDy=0;entryX=0;entryY=0.5;entryDx=0;entryDy=0;" edge="1" parent="1" source="E9_3o5nhPN5Pwu67m_Ef-2" target="E9_3o5nhPN5Pwu67m_Ef-7">
          <mxGeometry relative="1" as="geometry" />
        </mxCell>
        <mxCell id="E9_3o5nhPN5Pwu67m_Ef-48" style="rounded=0;orthogonalLoop=1;jettySize=auto;html=1;exitX=0.5;exitY=1;exitDx=0;exitDy=0;entryX=0;entryY=0.5;entryDx=0;entryDy=0;" edge="1" parent="1" source="E9_3o5nhPN5Pwu67m_Ef-2" target="E9_3o5nhPN5Pwu67m_Ef-6">
          <mxGeometry relative="1" as="geometry" />
        </mxCell>
        <mxCell id="E9_3o5nhPN5Pwu67m_Ef-49" style="rounded=0;orthogonalLoop=1;jettySize=auto;html=1;exitX=0.5;exitY=1;exitDx=0;exitDy=0;entryX=0;entryY=0.5;entryDx=0;entryDy=0;" edge="1" parent="1" source="E9_3o5nhPN5Pwu67m_Ef-2" target="E9_3o5nhPN5Pwu67m_Ef-5">
          <mxGeometry relative="1" as="geometry" />
        </mxCell>
        <mxCell id="E9_3o5nhPN5Pwu67m_Ef-2" value="平台可信" style="rounded=1;whiteSpace=wrap;html=1;" vertex="1" parent="1">
          <mxGeometry x="40" y="320" width="120" height="40" as="geometry" />
        </mxCell>
        <mxCell id="E9_3o5nhPN5Pwu67m_Ef-79" style="rounded=0;orthogonalLoop=1;jettySize=auto;html=1;exitX=0.5;exitY=1;exitDx=0;exitDy=0;entryX=0;entryY=0.5;entryDx=0;entryDy=0;" edge="1" parent="1" source="E9_3o5nhPN5Pwu67m_Ef-3" target="E9_3o5nhPN5Pwu67m_Ef-15">
          <mxGeometry relative="1" as="geometry" />
        </mxCell>
        <mxCell id="E9_3o5nhPN5Pwu67m_Ef-80" style="rounded=0;orthogonalLoop=1;jettySize=auto;html=1;exitX=0.5;exitY=1;exitDx=0;exitDy=0;entryX=0;entryY=0.5;entryDx=0;entryDy=0;" edge="1" parent="1" source="E9_3o5nhPN5Pwu67m_Ef-3" target="E9_3o5nhPN5Pwu67m_Ef-16">
          <mxGeometry relative="1" as="geometry" />
        </mxCell>
        <mxCell id="E9_3o5nhPN5Pwu67m_Ef-3" value="网络可信" style="rounded=1;whiteSpace=wrap;html=1;" vertex="1" parent="1">
          <mxGeometry x="320" y="320" width="120" height="40" as="geometry" />
        </mxCell>
        <mxCell id="E9_3o5nhPN5Pwu67m_Ef-4" value="用户可信" style="rounded=1;whiteSpace=wrap;html=1;" vertex="1" parent="1">
          <mxGeometry x="580" y="320" width="120" height="40" as="geometry" />
        </mxCell>
        <mxCell id="E9_3o5nhPN5Pwu67m_Ef-9" value="" style="rounded=0;orthogonalLoop=1;jettySize=auto;html=1;exitX=1;exitY=0.5;exitDx=0;exitDy=0;entryX=0;entryY=0.5;entryDx=0;entryDy=0;" edge="1" parent="1" source="E9_3o5nhPN5Pwu67m_Ef-5" target="E9_3o5nhPN5Pwu67m_Ef-8">
          <mxGeometry relative="1" as="geometry" />
        </mxCell>
        <mxCell id="E9_3o5nhPN5Pwu67m_Ef-22" style="rounded=0;orthogonalLoop=1;jettySize=auto;html=1;exitX=1;exitY=0.5;exitDx=0;exitDy=0;" edge="1" parent="1" source="E9_3o5nhPN5Pwu67m_Ef-5" target="E9_3o5nhPN5Pwu67m_Ef-13">
          <mxGeometry relative="1" as="geometry" />
        </mxCell>
        <mxCell id="E9_3o5nhPN5Pwu67m_Ef-23" style="rounded=0;orthogonalLoop=1;jettySize=auto;html=1;exitX=1;exitY=0.5;exitDx=0;exitDy=0;entryX=0;entryY=0.5;entryDx=0;entryDy=0;" edge="1" parent="1" source="E9_3o5nhPN5Pwu67m_Ef-5" target="E9_3o5nhPN5Pwu67m_Ef-14">
          <mxGeometry relative="1" as="geometry" />
        </mxCell>
        <mxCell id="E9_3o5nhPN5Pwu67m_Ef-5" value="软&lt;div&gt;件&lt;/div&gt;&lt;div&gt;检&lt;/div&gt;&lt;div&gt;验&lt;/div&gt;" style="rounded=1;whiteSpace=wrap;html=1;direction=south;" vertex="1" parent="1">
          <mxGeometry x="220" y="420" width="30" height="120" as="geometry" />
        </mxCell>
        <mxCell id="E9_3o5nhPN5Pwu67m_Ef-36" style="rounded=0;orthogonalLoop=1;jettySize=auto;html=1;exitX=1;exitY=0.5;exitDx=0;exitDy=0;entryX=0;entryY=0.5;entryDx=0;entryDy=0;" edge="1" parent="1" source="E9_3o5nhPN5Pwu67m_Ef-6" target="E9_3o5nhPN5Pwu67m_Ef-25">
          <mxGeometry relative="1" as="geometry" />
        </mxCell>
        <mxCell id="E9_3o5nhPN5Pwu67m_Ef-37" style="rounded=0;orthogonalLoop=1;jettySize=auto;html=1;exitX=1;exitY=0.5;exitDx=0;exitDy=0;entryX=0;entryY=0.5;entryDx=0;entryDy=0;" edge="1" parent="1" source="E9_3o5nhPN5Pwu67m_Ef-6" target="E9_3o5nhPN5Pwu67m_Ef-28">
          <mxGeometry relative="1" as="geometry" />
        </mxCell>
        <mxCell id="E9_3o5nhPN5Pwu67m_Ef-38" style="rounded=0;orthogonalLoop=1;jettySize=auto;html=1;exitX=1;exitY=0.5;exitDx=0;exitDy=0;entryX=0;entryY=0.5;entryDx=0;entryDy=0;" edge="1" parent="1" source="E9_3o5nhPN5Pwu67m_Ef-6" target="E9_3o5nhPN5Pwu67m_Ef-29">
          <mxGeometry relative="1" as="geometry" />
        </mxCell>
        <mxCell id="E9_3o5nhPN5Pwu67m_Ef-6" value="硬&lt;div&gt;件&lt;/div&gt;&lt;div&gt;基&lt;/div&gt;&lt;div&gt;线&lt;/div&gt;" style="rounded=1;whiteSpace=wrap;html=1;direction=south;" vertex="1" parent="1">
          <mxGeometry x="-180" y="420" width="30" height="120" as="geometry" />
        </mxCell>
        <mxCell id="E9_3o5nhPN5Pwu67m_Ef-45" style="rounded=0;orthogonalLoop=1;jettySize=auto;html=1;exitX=1;exitY=0.5;exitDx=0;exitDy=0;entryX=0;entryY=0.5;entryDx=0;entryDy=0;" edge="1" parent="1" source="E9_3o5nhPN5Pwu67m_Ef-7" target="E9_3o5nhPN5Pwu67m_Ef-39">
          <mxGeometry relative="1" as="geometry" />
        </mxCell>
        <mxCell id="E9_3o5nhPN5Pwu67m_Ef-46" style="rounded=0;orthogonalLoop=1;jettySize=auto;html=1;exitX=1;exitY=0.5;exitDx=0;exitDy=0;" edge="1" parent="1" source="E9_3o5nhPN5Pwu67m_Ef-7" target="E9_3o5nhPN5Pwu67m_Ef-40">
          <mxGeometry relative="1" as="geometry" />
        </mxCell>
        <mxCell id="E9_3o5nhPN5Pwu67m_Ef-7" value="设&lt;div&gt;备&lt;/div&gt;&lt;div&gt;身&lt;/div&gt;&lt;div&gt;份&lt;/div&gt;" style="rounded=1;whiteSpace=wrap;html=1;direction=south;" vertex="1" parent="1">
          <mxGeometry x="-10" y="420" width="30" height="120" as="geometry" />
        </mxCell>
        <mxCell id="E9_3o5nhPN5Pwu67m_Ef-86" style="rounded=0;orthogonalLoop=1;jettySize=auto;html=1;exitX=1;exitY=0.5;exitDx=0;exitDy=0;entryX=0;entryY=0.5;entryDx=0;entryDy=0;" edge="1" parent="1" source="E9_3o5nhPN5Pwu67m_Ef-8" target="E9_3o5nhPN5Pwu67m_Ef-75">
          <mxGeometry relative="1" as="geometry" />
        </mxCell>
        <mxCell id="E9_3o5nhPN5Pwu67m_Ef-87" style="rounded=0;orthogonalLoop=1;jettySize=auto;html=1;exitX=1;exitY=0.5;exitDx=0;exitDy=0;entryX=0;entryY=0.5;entryDx=0;entryDy=0;" edge="1" parent="1" source="E9_3o5nhPN5Pwu67m_Ef-8" target="E9_3o5nhPN5Pwu67m_Ef-82">
          <mxGeometry relative="1" as="geometry" />
        </mxCell>
        <mxCell id="E9_3o5nhPN5Pwu67m_Ef-8" value="平&lt;div&gt;台&lt;/div&gt;&lt;div&gt;配&lt;/div&gt;&lt;div&gt;置&lt;/div&gt;" style="rounded=1;whiteSpace=wrap;html=1;direction=south;" vertex="1" parent="1">
          <mxGeometry x="160" y="600" width="30" height="120" as="geometry" />
        </mxCell>
        <mxCell id="E9_3o5nhPN5Pwu67m_Ef-89" style="rounded=0;orthogonalLoop=1;jettySize=auto;html=1;exitX=1;exitY=0.5;exitDx=0;exitDy=0;entryX=0;entryY=0.5;entryDx=0;entryDy=0;" edge="1" parent="1" source="E9_3o5nhPN5Pwu67m_Ef-13" target="E9_3o5nhPN5Pwu67m_Ef-88">
          <mxGeometry relative="1" as="geometry" />
        </mxCell>
        <mxCell id="E9_3o5nhPN5Pwu67m_Ef-92" style="rounded=0;orthogonalLoop=1;jettySize=auto;html=1;exitX=1;exitY=0.5;exitDx=0;exitDy=0;entryX=0;entryY=0.5;entryDx=0;entryDy=0;" edge="1" parent="1" source="E9_3o5nhPN5Pwu67m_Ef-13" target="E9_3o5nhPN5Pwu67m_Ef-91">
          <mxGeometry relative="1" as="geometry" />
        </mxCell>
        <mxCell id="E9_3o5nhPN5Pwu67m_Ef-13" value="系&lt;div&gt;统&lt;/div&gt;&lt;div&gt;状&lt;/div&gt;&lt;div&gt;态&lt;/div&gt;" style="rounded=1;whiteSpace=wrap;html=1;direction=south;" vertex="1" parent="1">
          <mxGeometry x="220" y="600" width="30" height="120" as="geometry" />
        </mxCell>
        <mxCell id="E9_3o5nhPN5Pwu67m_Ef-95" style="rounded=0;orthogonalLoop=1;jettySize=auto;html=1;exitX=1;exitY=0.5;exitDx=0;exitDy=0;" edge="1" parent="1" source="E9_3o5nhPN5Pwu67m_Ef-14" target="E9_3o5nhPN5Pwu67m_Ef-93">
          <mxGeometry relative="1" as="geometry" />
        </mxCell>
        <mxCell id="E9_3o5nhPN5Pwu67m_Ef-96" style="rounded=0;orthogonalLoop=1;jettySize=auto;html=1;exitX=1;exitY=0.5;exitDx=0;exitDy=0;entryX=0;entryY=0.5;entryDx=0;entryDy=0;" edge="1" parent="1" source="E9_3o5nhPN5Pwu67m_Ef-14" target="E9_3o5nhPN5Pwu67m_Ef-94">
          <mxGeometry relative="1" as="geometry" />
        </mxCell>
        <mxCell id="E9_3o5nhPN5Pwu67m_Ef-14" value="漏&lt;div&gt;洞&lt;div&gt;风&lt;/div&gt;&lt;div&gt;险&lt;/div&gt;&lt;/div&gt;" style="rounded=1;whiteSpace=wrap;html=1;direction=south;" vertex="1" parent="1">
          <mxGeometry x="270" y="600" width="30" height="120" as="geometry" />
        </mxCell>
        <mxCell id="E9_3o5nhPN5Pwu67m_Ef-98" style="rounded=0;orthogonalLoop=1;jettySize=auto;html=1;exitX=1;exitY=0.5;exitDx=0;exitDy=0;entryX=0;entryY=0.5;entryDx=0;entryDy=0;" edge="1" parent="1" source="E9_3o5nhPN5Pwu67m_Ef-15" target="E9_3o5nhPN5Pwu67m_Ef-81">
          <mxGeometry relative="1" as="geometry" />
        </mxCell>
        <mxCell id="E9_3o5nhPN5Pwu67m_Ef-102" style="rounded=0;orthogonalLoop=1;jettySize=auto;html=1;exitX=1;exitY=0.5;exitDx=0;exitDy=0;entryX=0;entryY=0.5;entryDx=0;entryDy=0;" edge="1" parent="1" source="E9_3o5nhPN5Pwu67m_Ef-15" target="E9_3o5nhPN5Pwu67m_Ef-101">
          <mxGeometry relative="1" as="geometry" />
        </mxCell>
        <mxCell id="E9_3o5nhPN5Pwu67m_Ef-15" value="网&lt;div&gt;络&lt;/div&gt;&lt;div&gt;环&lt;/div&gt;&lt;div&gt;境&lt;/div&gt;" style="rounded=1;whiteSpace=wrap;html=1;direction=south;" vertex="1" parent="1">
          <mxGeometry x="340" y="420" width="30" height="120" as="geometry" />
        </mxCell>
        <mxCell id="E9_3o5nhPN5Pwu67m_Ef-100" style="rounded=0;orthogonalLoop=1;jettySize=auto;html=1;exitX=1;exitY=0.5;exitDx=0;exitDy=0;entryX=0;entryY=0.5;entryDx=0;entryDy=0;" edge="1" parent="1" source="E9_3o5nhPN5Pwu67m_Ef-16" target="E9_3o5nhPN5Pwu67m_Ef-99">
          <mxGeometry relative="1" as="geometry" />
        </mxCell>
        <mxCell id="E9_3o5nhPN5Pwu67m_Ef-16" value="网&lt;div&gt;络&lt;/div&gt;&lt;div&gt;传&lt;/div&gt;&lt;div&gt;输&lt;/div&gt;" style="rounded=1;whiteSpace=wrap;html=1;direction=south;" vertex="1" parent="1">
          <mxGeometry x="414" y="420" width="30" height="120" as="geometry" />
        </mxCell>
        <mxCell id="E9_3o5nhPN5Pwu67m_Ef-20" value="" style="edgeStyle=orthogonalEdgeStyle;rounded=0;orthogonalLoop=1;jettySize=auto;html=1;" edge="1" parent="1" source="E9_3o5nhPN5Pwu67m_Ef-17" target="E9_3o5nhPN5Pwu67m_Ef-19">
          <mxGeometry relative="1" as="geometry" />
        </mxCell>
        <mxCell id="E9_3o5nhPN5Pwu67m_Ef-17" value="用&lt;div&gt;户&lt;br&gt;&lt;div&gt;身&lt;/div&gt;&lt;div&gt;份&lt;br&gt;&lt;/div&gt;&lt;/div&gt;" style="rounded=1;whiteSpace=wrap;html=1;direction=south;" vertex="1" parent="1">
          <mxGeometry x="575" y="420" width="30" height="120" as="geometry" />
        </mxCell>
        <mxCell id="E9_3o5nhPN5Pwu67m_Ef-18" value="用&lt;div&gt;户&lt;/div&gt;&lt;div&gt;行&lt;/div&gt;&lt;div&gt;为&lt;/div&gt;" style="rounded=1;whiteSpace=wrap;html=1;direction=south;" vertex="1" parent="1">
          <mxGeometry x="670" y="420" width="30" height="120" as="geometry" />
        </mxCell>
        <mxCell id="E9_3o5nhPN5Pwu67m_Ef-19" value="密&lt;div&gt;钥&lt;/div&gt;&lt;div&gt;安&lt;/div&gt;&lt;div&gt;全&lt;/div&gt;&lt;div&gt;性&lt;/div&gt;" style="rounded=1;whiteSpace=wrap;html=1;direction=south;" vertex="1" parent="1">
          <mxGeometry x="510" y="620" width="30" height="120" as="geometry" />
        </mxCell>
        <mxCell id="E9_3o5nhPN5Pwu67m_Ef-21" value="用&lt;div&gt;户&lt;/div&gt;&lt;div&gt;ID&lt;div&gt;安&lt;/div&gt;&lt;div&gt;全&lt;/div&gt;&lt;div&gt;性&lt;/div&gt;&lt;/div&gt;" style="rounded=1;whiteSpace=wrap;html=1;direction=south;" vertex="1" parent="1">
          <mxGeometry x="580" y="620" width="30" height="120" as="geometry" />
        </mxCell>
        <mxCell id="E9_3o5nhPN5Pwu67m_Ef-41" style="rounded=0;orthogonalLoop=1;jettySize=auto;html=1;exitX=1;exitY=0.5;exitDx=0;exitDy=0;entryX=0;entryY=0.5;entryDx=0;entryDy=0;" edge="1" parent="1" source="E9_3o5nhPN5Pwu67m_Ef-25" target="E9_3o5nhPN5Pwu67m_Ef-32">
          <mxGeometry relative="1" as="geometry" />
        </mxCell>
        <mxCell id="E9_3o5nhPN5Pwu67m_Ef-42" style="rounded=0;orthogonalLoop=1;jettySize=auto;html=1;exitX=1;exitY=0.5;exitDx=0;exitDy=0;entryX=0;entryY=0.5;entryDx=0;entryDy=0;" edge="1" parent="1" source="E9_3o5nhPN5Pwu67m_Ef-25" target="E9_3o5nhPN5Pwu67m_Ef-33">
          <mxGeometry relative="1" as="geometry" />
        </mxCell>
        <mxCell id="E9_3o5nhPN5Pwu67m_Ef-25" value="固&lt;div&gt;件&lt;/div&gt;&lt;div&gt;完&lt;/div&gt;&lt;div&gt;整&lt;/div&gt;&lt;div&gt;性&lt;/div&gt;" style="rounded=1;whiteSpace=wrap;html=1;direction=south;" vertex="1" parent="1">
          <mxGeometry x="-220" y="600" width="30" height="120" as="geometry" />
        </mxCell>
        <mxCell id="E9_3o5nhPN5Pwu67m_Ef-28" value="TPM安&lt;div&gt;全&lt;/div&gt;&lt;div&gt;启&lt;/div&gt;&lt;div&gt;动&lt;/div&gt;" style="rounded=1;whiteSpace=wrap;html=1;direction=south;" vertex="1" parent="1">
          <mxGeometry x="-180" y="600" width="30" height="120" as="geometry" />
        </mxCell>
        <mxCell id="E9_3o5nhPN5Pwu67m_Ef-43" style="rounded=0;orthogonalLoop=1;jettySize=auto;html=1;exitX=1;exitY=0.5;exitDx=0;exitDy=0;entryX=0;entryY=0.5;entryDx=0;entryDy=0;" edge="1" parent="1" source="E9_3o5nhPN5Pwu67m_Ef-29" target="E9_3o5nhPN5Pwu67m_Ef-35">
          <mxGeometry relative="1" as="geometry" />
        </mxCell>
        <mxCell id="E9_3o5nhPN5Pwu67m_Ef-44" style="rounded=0;orthogonalLoop=1;jettySize=auto;html=1;exitX=1;exitY=0.5;exitDx=0;exitDy=0;entryX=0;entryY=0.5;entryDx=0;entryDy=0;" edge="1" parent="1" source="E9_3o5nhPN5Pwu67m_Ef-29" target="E9_3o5nhPN5Pwu67m_Ef-34">
          <mxGeometry relative="1" as="geometry" />
        </mxCell>
        <mxCell id="E9_3o5nhPN5Pwu67m_Ef-29" value="硬&lt;div&gt;件&lt;/div&gt;&lt;div&gt;设&lt;/div&gt;&lt;div&gt;备&lt;/div&gt;&lt;div&gt;连&lt;/div&gt;&lt;div&gt;接&lt;/div&gt;" style="rounded=1;whiteSpace=wrap;html=1;direction=south;" vertex="1" parent="1">
          <mxGeometry x="-140" y="600" width="30" height="120" as="geometry" />
        </mxCell>
        <mxCell id="E9_3o5nhPN5Pwu67m_Ef-32" value="&lt;div&gt;bios&lt;/div&gt;&lt;div&gt;系&lt;div&gt;统&lt;/div&gt;&lt;div&gt;管&lt;/div&gt;&lt;div&gt;理&lt;/div&gt;&lt;/div&gt;" style="rounded=1;whiteSpace=wrap;html=1;direction=south;" vertex="1" parent="1">
          <mxGeometry x="-290" y="790" width="30" height="120" as="geometry" />
        </mxCell>
        <mxCell id="E9_3o5nhPN5Pwu67m_Ef-33" value="高&lt;div&gt;速&lt;/div&gt;&lt;div&gt;串&lt;/div&gt;&lt;div&gt;行&lt;/div&gt;&lt;div&gt;接&lt;/div&gt;&lt;div&gt;口&lt;/div&gt;&lt;div&gt;设&lt;/div&gt;&lt;div&gt;备&lt;/div&gt;" style="rounded=1;whiteSpace=wrap;html=1;direction=south;" vertex="1" parent="1">
          <mxGeometry x="-220" y="790" width="30" height="120" as="geometry" />
        </mxCell>
        <mxCell id="E9_3o5nhPN5Pwu67m_Ef-34" value="高&lt;div&gt;速&lt;/div&gt;&lt;div&gt;串&lt;/div&gt;&lt;div&gt;行&lt;/div&gt;&lt;div&gt;接&lt;/div&gt;&lt;div&gt;口&lt;/div&gt;&lt;div&gt;设&lt;/div&gt;&lt;div&gt;备&lt;/div&gt;" style="rounded=1;whiteSpace=wrap;html=1;direction=south;" vertex="1" parent="1">
          <mxGeometry x="-105" y="790" width="30" height="120" as="geometry" />
        </mxCell>
        <mxCell id="E9_3o5nhPN5Pwu67m_Ef-35" value="&lt;div&gt;通&lt;/div&gt;&lt;div&gt;用&lt;/div&gt;&lt;div&gt;串&lt;/div&gt;&lt;div&gt;行&lt;/div&gt;&lt;div&gt;接&lt;/div&gt;&lt;div&gt;口&lt;/div&gt;&lt;div&gt;设&lt;/div&gt;&lt;div&gt;备&lt;/div&gt;" style="rounded=1;whiteSpace=wrap;html=1;direction=south;" vertex="1" parent="1">
          <mxGeometry x="-170" y="790" width="30" height="120" as="geometry" />
        </mxCell>
        <mxCell id="E9_3o5nhPN5Pwu67m_Ef-39" value="密&lt;div&gt;钥&lt;/div&gt;&lt;div&gt;安&lt;/div&gt;&lt;div&gt;全&lt;/div&gt;&lt;div&gt;性&lt;/div&gt;" style="rounded=1;whiteSpace=wrap;html=1;direction=south;" vertex="1" parent="1">
          <mxGeometry x="-40" y="600" width="30" height="120" as="geometry" />
        </mxCell>
        <mxCell id="E9_3o5nhPN5Pwu67m_Ef-40" value="设&lt;div&gt;备&lt;/div&gt;&lt;div&gt;ID&lt;div&gt;安&lt;/div&gt;&lt;div&gt;全&lt;/div&gt;&lt;div&gt;性&lt;/div&gt;&lt;/div&gt;" style="rounded=1;whiteSpace=wrap;html=1;direction=south;" vertex="1" parent="1">
          <mxGeometry x="20" y="600" width="30" height="120" as="geometry" />
        </mxCell>
        <mxCell id="E9_3o5nhPN5Pwu67m_Ef-50" value="&lt;font style=&quot;font-size: 15px;&quot;&gt;系统安全&lt;/font&gt;" style="rounded=0;whiteSpace=wrap;html=1;" vertex="1" parent="1">
          <mxGeometry x="150" y="1230" width="30" height="120" as="geometry" />
        </mxCell>
        <mxCell id="E9_3o5nhPN5Pwu67m_Ef-51" value="&lt;font style=&quot;font-size: 15px;&quot;&gt;网络安全&lt;/font&gt;" style="rounded=0;whiteSpace=wrap;html=1;" vertex="1" parent="1">
          <mxGeometry x="510" y="1210" width="30" height="120" as="geometry" />
        </mxCell>
        <mxCell id="E9_3o5nhPN5Pwu67m_Ef-52" value="&lt;font style=&quot;font-size: 15px;&quot;&gt;用户安全&lt;/font&gt;" style="rounded=0;whiteSpace=wrap;html=1;" vertex="1" parent="1">
          <mxGeometry x="620" y="1210" width="30" height="120" as="geometry" />
        </mxCell>
        <mxCell id="E9_3o5nhPN5Pwu67m_Ef-53" value="&lt;span style=&quot;font-size: 15px;&quot;&gt;审计规范&lt;/span&gt;" style="rounded=0;whiteSpace=wrap;html=1;fillColor=#FFFFFF;" vertex="1" parent="1">
          <mxGeometry x="740" y="1210" width="30" height="120" as="geometry" />
        </mxCell>
        <mxCell id="E9_3o5nhPN5Pwu67m_Ef-54" value="&lt;font style=&quot;font-size: 15px;&quot;&gt;系统启动配置&lt;/font&gt;" style="rounded=0;whiteSpace=wrap;html=1;fillColor=#B3B3B3;" vertex="1" parent="1">
          <mxGeometry x="350" y="1000" width="30" height="120" as="geometry" />
        </mxCell>
        <mxCell id="E9_3o5nhPN5Pwu67m_Ef-55" value="&lt;font style=&quot;font-size: 15px;&quot;&gt;环境变量管理&lt;/font&gt;" style="rounded=0;whiteSpace=wrap;html=1;fillColor=#B3B3B3;" vertex="1" parent="1">
          <mxGeometry x="390" y="1000" width="30" height="120" as="geometry" />
        </mxCell>
        <mxCell id="E9_3o5nhPN5Pwu67m_Ef-56" value="&lt;font style=&quot;font-size: 15px;&quot;&gt;账户锁定检查&lt;/font&gt;" style="rounded=0;whiteSpace=wrap;html=1;fillColor=#B3B3B3;" vertex="1" parent="1">
          <mxGeometry x="580" y="1370" width="30" height="120" as="geometry" />
        </mxCell>
        <mxCell id="E9_3o5nhPN5Pwu67m_Ef-57" value="&lt;font style=&quot;font-size: 15px;&quot;&gt;权限管理&lt;/font&gt;" style="rounded=0;whiteSpace=wrap;html=1;fillColor=#B3B3B3;" vertex="1" parent="1">
          <mxGeometry x="620" y="1370" width="30" height="120" as="geometry" />
        </mxCell>
        <mxCell id="E9_3o5nhPN5Pwu67m_Ef-58" value="&lt;font style=&quot;font-size: 15px;&quot;&gt;网络连&lt;br&gt;接配置&lt;/font&gt;" style="rounded=0;whiteSpace=wrap;html=1;fillColor=#B3B3B3;" vertex="1" parent="1">
          <mxGeometry x="490" y="1370" width="30" height="120" as="geometry" />
        </mxCell>
        <mxCell id="E9_3o5nhPN5Pwu67m_Ef-59" value="&lt;font style=&quot;font-size: 15px;&quot;&gt;系统服务状态&lt;/font&gt;" style="rounded=0;whiteSpace=wrap;html=1;fillColor=#B3B3B3;" vertex="1" parent="1">
          <mxGeometry x="430" y="1000" width="30" height="120" as="geometry" />
        </mxCell>
        <mxCell id="E9_3o5nhPN5Pwu67m_Ef-60" value="&lt;span style=&quot;font-size: 15px;&quot;&gt;防火墙配置&lt;/span&gt;" style="rounded=0;whiteSpace=wrap;html=1;fillColor=#B3B3B3;" vertex="1" parent="1">
          <mxGeometry x="530" y="1370" width="30" height="120" as="geometry" />
        </mxCell>
        <mxCell id="E9_3o5nhPN5Pwu67m_Ef-61" value="&lt;font style=&quot;font-size: 15px;&quot;&gt;密钥管理&lt;/font&gt;" style="rounded=0;whiteSpace=wrap;html=1;fillColor=#B3B3B3;" vertex="1" parent="1">
          <mxGeometry x="660" y="1370" width="30" height="120" as="geometry" />
        </mxCell>
        <mxCell id="E9_3o5nhPN5Pwu67m_Ef-62" value="" style="endArrow=classic;html=1;rounded=0;exitX=0.5;exitY=1;exitDx=0;exitDy=0;entryX=0.5;entryY=0;entryDx=0;entryDy=0;" edge="1" parent="1" source="E9_3o5nhPN5Pwu67m_Ef-50" target="E9_3o5nhPN5Pwu67m_Ef-54">
          <mxGeometry width="50" height="50" relative="1" as="geometry">
            <mxPoint x="150" y="960" as="sourcePoint" />
            <mxPoint x="200" y="910" as="targetPoint" />
          </mxGeometry>
        </mxCell>
        <mxCell id="E9_3o5nhPN5Pwu67m_Ef-63" value="" style="endArrow=classic;html=1;rounded=0;exitX=0.5;exitY=1;exitDx=0;exitDy=0;entryX=0.5;entryY=0;entryDx=0;entryDy=0;" edge="1" parent="1" source="E9_3o5nhPN5Pwu67m_Ef-50" target="E9_3o5nhPN5Pwu67m_Ef-55">
          <mxGeometry width="50" height="50" relative="1" as="geometry">
            <mxPoint x="180" y="960" as="sourcePoint" />
            <mxPoint x="230" y="910" as="targetPoint" />
          </mxGeometry>
        </mxCell>
        <mxCell id="E9_3o5nhPN5Pwu67m_Ef-64" value="" style="endArrow=classic;html=1;rounded=0;exitX=0.5;exitY=1;exitDx=0;exitDy=0;entryX=0.5;entryY=0;entryDx=0;entryDy=0;" edge="1" parent="1" source="E9_3o5nhPN5Pwu67m_Ef-50" target="E9_3o5nhPN5Pwu67m_Ef-59">
          <mxGeometry width="50" height="50" relative="1" as="geometry">
            <mxPoint x="170" y="990" as="sourcePoint" />
            <mxPoint x="220" y="940" as="targetPoint" />
          </mxGeometry>
        </mxCell>
        <mxCell id="E9_3o5nhPN5Pwu67m_Ef-65" value="" style="endArrow=classic;html=1;rounded=0;exitX=0.5;exitY=1;exitDx=0;exitDy=0;entryX=0.5;entryY=0;entryDx=0;entryDy=0;" edge="1" parent="1" source="E9_3o5nhPN5Pwu67m_Ef-51" target="E9_3o5nhPN5Pwu67m_Ef-58">
          <mxGeometry width="50" height="50" relative="1" as="geometry">
            <mxPoint x="160" y="1360" as="sourcePoint" />
            <mxPoint x="210" y="1310" as="targetPoint" />
          </mxGeometry>
        </mxCell>
        <mxCell id="E9_3o5nhPN5Pwu67m_Ef-66" value="" style="endArrow=classic;html=1;rounded=0;exitX=0.5;exitY=1;exitDx=0;exitDy=0;entryX=0.5;entryY=0;entryDx=0;entryDy=0;" edge="1" parent="1" source="E9_3o5nhPN5Pwu67m_Ef-51" target="E9_3o5nhPN5Pwu67m_Ef-60">
          <mxGeometry width="50" height="50" relative="1" as="geometry">
            <mxPoint x="210" y="1350" as="sourcePoint" />
            <mxPoint x="260" y="1300" as="targetPoint" />
          </mxGeometry>
        </mxCell>
        <mxCell id="E9_3o5nhPN5Pwu67m_Ef-67" value="" style="endArrow=classic;html=1;rounded=0;exitX=0.5;exitY=1;exitDx=0;exitDy=0;entryX=0.5;entryY=0;entryDx=0;entryDy=0;" edge="1" parent="1" source="E9_3o5nhPN5Pwu67m_Ef-52" target="E9_3o5nhPN5Pwu67m_Ef-56">
          <mxGeometry width="50" height="50" relative="1" as="geometry">
            <mxPoint x="230" y="1350" as="sourcePoint" />
            <mxPoint x="280" y="1300" as="targetPoint" />
          </mxGeometry>
        </mxCell>
        <mxCell id="E9_3o5nhPN5Pwu67m_Ef-68" value="" style="endArrow=classic;html=1;rounded=0;exitX=0.5;exitY=1;exitDx=0;exitDy=0;entryX=0.5;entryY=0;entryDx=0;entryDy=0;" edge="1" parent="1" source="E9_3o5nhPN5Pwu67m_Ef-52" target="E9_3o5nhPN5Pwu67m_Ef-57">
          <mxGeometry width="50" height="50" relative="1" as="geometry">
            <mxPoint x="150" y="1360" as="sourcePoint" />
            <mxPoint x="200" y="1310" as="targetPoint" />
          </mxGeometry>
        </mxCell>
        <mxCell id="E9_3o5nhPN5Pwu67m_Ef-69" value="" style="endArrow=classic;html=1;rounded=0;exitX=0.5;exitY=1;exitDx=0;exitDy=0;entryX=0.5;entryY=0;entryDx=0;entryDy=0;" edge="1" parent="1" source="E9_3o5nhPN5Pwu67m_Ef-52" target="E9_3o5nhPN5Pwu67m_Ef-61">
          <mxGeometry width="50" height="50" relative="1" as="geometry">
            <mxPoint x="640" y="1340" as="sourcePoint" />
            <mxPoint x="170" y="1300" as="targetPoint" />
          </mxGeometry>
        </mxCell>
        <mxCell id="E9_3o5nhPN5Pwu67m_Ef-70" value="&lt;font style=&quot;font-size: 15px;&quot;&gt;日志审计&lt;/font&gt;" style="rounded=0;whiteSpace=wrap;html=1;fillColor=#B3B3B3;" vertex="1" parent="1">
          <mxGeometry x="720" y="1370" width="30" height="120" as="geometry" />
        </mxCell>
        <mxCell id="E9_3o5nhPN5Pwu67m_Ef-71" value="&lt;font style=&quot;font-size: 15px;&quot;&gt;文件增删改查&lt;/font&gt;" style="rounded=0;whiteSpace=wrap;html=1;fillColor=#B3B3B3;" vertex="1" parent="1">
          <mxGeometry x="760" y="1370" width="30" height="120" as="geometry" />
        </mxCell>
        <mxCell id="E9_3o5nhPN5Pwu67m_Ef-72" value="" style="endArrow=classic;html=1;rounded=0;exitX=0.5;exitY=1;exitDx=0;exitDy=0;entryX=0.5;entryY=0;entryDx=0;entryDy=0;" edge="1" parent="1" source="E9_3o5nhPN5Pwu67m_Ef-53" target="E9_3o5nhPN5Pwu67m_Ef-70">
          <mxGeometry width="50" height="50" relative="1" as="geometry">
            <mxPoint x="160" y="1340" as="sourcePoint" />
            <mxPoint x="210" y="1290" as="targetPoint" />
          </mxGeometry>
        </mxCell>
        <mxCell id="E9_3o5nhPN5Pwu67m_Ef-73" value="" style="endArrow=classic;html=1;rounded=0;exitX=0.5;exitY=1;exitDx=0;exitDy=0;entryX=0.5;entryY=0;entryDx=0;entryDy=0;" edge="1" parent="1" source="E9_3o5nhPN5Pwu67m_Ef-53" target="E9_3o5nhPN5Pwu67m_Ef-71">
          <mxGeometry width="50" height="50" relative="1" as="geometry">
            <mxPoint x="755" y="1340" as="sourcePoint" />
            <mxPoint x="735" y="1380" as="targetPoint" />
          </mxGeometry>
        </mxCell>
        <mxCell id="E9_3o5nhPN5Pwu67m_Ef-75" value="平&lt;div&gt;台&lt;/div&gt;&lt;div&gt;启&lt;/div&gt;&lt;div&gt;动&lt;/div&gt;&lt;div&gt;配&lt;/div&gt;&lt;div&gt;置&lt;/div&gt;" style="rounded=1;whiteSpace=wrap;html=1;direction=south;" vertex="1" parent="1">
          <mxGeometry x="60" y="800" width="30" height="120" as="geometry" />
        </mxCell>
        <mxCell id="E9_3o5nhPN5Pwu67m_Ef-81" value="防&lt;div&gt;火&lt;/div&gt;&lt;div&gt;墙&lt;/div&gt;&lt;div&gt;配&lt;/div&gt;&lt;div&gt;置&lt;/div&gt;" style="rounded=1;whiteSpace=wrap;html=1;direction=south;" vertex="1" parent="1">
          <mxGeometry x="320" y="600" width="30" height="120" as="geometry" />
        </mxCell>
        <mxCell id="E9_3o5nhPN5Pwu67m_Ef-82" value="平&lt;div&gt;台&lt;/div&gt;&lt;div&gt;服&lt;/div&gt;&lt;div&gt;务&lt;/div&gt;&lt;div&gt;配&lt;/div&gt;&lt;div&gt;置&lt;/div&gt;" style="rounded=1;whiteSpace=wrap;html=1;direction=south;" vertex="1" parent="1">
          <mxGeometry x="130" y="800" width="30" height="120" as="geometry" />
        </mxCell>
        <mxCell id="E9_3o5nhPN5Pwu67m_Ef-83" value="" style="endArrow=none;dashed=1;html=1;dashPattern=1 3;strokeWidth=2;rounded=0;" edge="1" parent="1">
          <mxGeometry width="50" height="50" relative="1" as="geometry">
            <mxPoint x="-130" y="849.71" as="sourcePoint" />
            <mxPoint x="-110" y="849.71" as="targetPoint" />
          </mxGeometry>
        </mxCell>
        <mxCell id="E9_3o5nhPN5Pwu67m_Ef-84" value="" style="endArrow=none;dashed=1;html=1;dashPattern=1 3;strokeWidth=2;rounded=0;" edge="1" parent="1">
          <mxGeometry width="50" height="50" relative="1" as="geometry">
            <mxPoint x="-250" y="849.71" as="sourcePoint" />
            <mxPoint x="-230" y="849.71" as="targetPoint" />
          </mxGeometry>
        </mxCell>
        <mxCell id="E9_3o5nhPN5Pwu67m_Ef-85" value="" style="endArrow=none;dashed=1;html=1;dashPattern=1 3;strokeWidth=2;rounded=0;" edge="1" parent="1">
          <mxGeometry width="50" height="50" relative="1" as="geometry">
            <mxPoint x="100" y="859.71" as="sourcePoint" />
            <mxPoint x="120" y="859.71" as="targetPoint" />
          </mxGeometry>
        </mxCell>
        <mxCell id="E9_3o5nhPN5Pwu67m_Ef-88" value="端&lt;div&gt;口&lt;/div&gt;&lt;div&gt;安&lt;/div&gt;&lt;div&gt;全&lt;/div&gt;" style="rounded=1;whiteSpace=wrap;html=1;direction=south;" vertex="1" parent="1">
          <mxGeometry x="180" y="800" width="30" height="120" as="geometry" />
        </mxCell>
        <mxCell id="E9_3o5nhPN5Pwu67m_Ef-90" value="" style="endArrow=none;dashed=1;html=1;dashPattern=1 3;strokeWidth=2;rounded=0;" edge="1" parent="1">
          <mxGeometry width="50" height="50" relative="1" as="geometry">
            <mxPoint x="220" y="859.6600000000001" as="sourcePoint" />
            <mxPoint x="240" y="859.6600000000001" as="targetPoint" />
          </mxGeometry>
        </mxCell>
        <mxCell id="E9_3o5nhPN5Pwu67m_Ef-91" value="资&lt;div&gt;源&lt;/div&gt;&lt;div&gt;使&lt;/div&gt;&lt;div&gt;用&lt;/div&gt;&lt;div&gt;状&lt;/div&gt;&lt;div&gt;态&lt;/div&gt;" style="rounded=1;whiteSpace=wrap;html=1;direction=south;" vertex="1" parent="1">
          <mxGeometry x="250" y="800" width="30" height="120" as="geometry" />
        </mxCell>
        <mxCell id="E9_3o5nhPN5Pwu67m_Ef-93" value="数&lt;div&gt;量&lt;/div&gt;" style="rounded=1;whiteSpace=wrap;html=1;direction=south;" vertex="1" parent="1">
          <mxGeometry x="300" y="800" width="30" height="120" as="geometry" />
        </mxCell>
        <mxCell id="E9_3o5nhPN5Pwu67m_Ef-94" value="风&lt;div&gt;险&lt;/div&gt;&lt;div&gt;评&lt;/div&gt;&lt;div&gt;分&lt;/div&gt;" style="rounded=1;whiteSpace=wrap;html=1;direction=south;" vertex="1" parent="1">
          <mxGeometry x="340" y="800" width="30" height="120" as="geometry" />
        </mxCell>
        <mxCell id="E9_3o5nhPN5Pwu67m_Ef-99" value="信&lt;div&gt;道&lt;/div&gt;&lt;div&gt;安&lt;/div&gt;&lt;div&gt;全&lt;/div&gt;" style="rounded=1;whiteSpace=wrap;html=1;direction=south;" vertex="1" parent="1">
          <mxGeometry x="414" y="600" width="30" height="120" as="geometry" />
        </mxCell>
        <mxCell id="E9_3o5nhPN5Pwu67m_Ef-101" value="远&lt;div&gt;程&lt;/div&gt;&lt;div&gt;连&lt;/div&gt;&lt;div&gt;接&lt;/div&gt;&lt;div&gt;配&lt;/div&gt;&lt;div&gt;置&lt;/div&gt;" style="rounded=1;whiteSpace=wrap;html=1;direction=south;" vertex="1" parent="1">
          <mxGeometry x="369" y="600" width="30" height="120" as="geometry" />
        </mxCell>
      </root>
    </mxGraphModel>
  </diagram>
</mxfile>
